<?xml version="1.0" encoding="iso-8859-1"?>
<!-- Generator: Adobe Illustrator 28.1.0, SVG Export Plug-In . SVG Version: 6.00 Build 0)  -->
<svg xmlns="http://www.w3.org/2000/svg" xmlns:xlink="http://www.w3.org/1999/xlink" version="1.1" id="Capa_1" x="0px" y="0px" viewBox="0 0 512 512" style="enable-background:new 0 0 512 512;" xml:space="preserve">
<g>
	<g>
		<g>
			<g>
				<g>
					<g>
						<path style="fill:#FFEFB9;" d="M118.549,376.847c9.076-17.712,20.427-34.109,31.741-50.437        c5.499-7.937,16.708-10.356,24.828-4.918c7.951,5.325,10.443,16.854,4.918,24.828c-9.226,13.315-18.471,26.656-26.494,40.746        c-1.139,2-2.2,3.904-3.206,5.78l-22.703,2.578L118.549,376.847z"/>
					</g>
					<g>
						<path style="fill:#FFEFB9;" d="M360.422,385.451c-7.981-18.232-18.314-35.289-28.613-52.275        c-5.006-8.257-16.047-11.354-24.483-6.42c-8.26,4.831-11.449,16.187-6.419,24.483c8.399,13.852,16.815,27.731,23.965,42.283        c1.015,2.066,1.958,4.03,2.848,5.965l22.503,3.955L360.422,385.451z"/>
					</g>
				</g>
				<path style="fill:#FFD123;" d="M356.445,365.44c0,0-30.214-60.191-55.457-55.097l0,0l-0.436-7.909l-107.812-0.428l-1.195,6.761      c-0.55-0.3-1.127-0.574-1.751-0.801c-24.195-8.819-63.086,46.166-63.086,46.166l52.144,26.48l-13.064,73.947l143.746,10.83      l-4.57-82.918L356.445,365.44z"/>
				<g>
					<g>
						<polygon style="fill:#B49BFF;" points="184.759,302.712 135.584,511.71 330.039,510.348 307.837,302.639 283.487,301.374         285.989,394.13 191.299,390.566 202.598,301.135       "/>
					</g>
				</g>
			</g>
			<g>
				<g>
					<g>
						<rect x="178.955" y="341.652" style="fill:#004D4A;" width="96.016" height="124.703"/>
					</g>
					<g>
						<path d="M271.089,460.826h-86.522c-0.494,0-0.895-0.401-0.895-0.895c0-0.494,0.401-0.895,0.895-0.895h86.522        c0.494,0,0.895,0.401,0.895,0.895C271.983,460.425,271.582,460.826,271.089,460.826z"/>
					</g>
					<g>
						<path style="fill:#FFFFFF;" d="M277.211,355.394H176.715v-9.628c0-3.654,2.963-6.617,6.617-6.617h87.261        c3.655,0,6.617,2.963,6.617,6.617V355.394z"/>
					</g>
					<g>
						<rect x="188.201" y="374.153" style="fill:#FFFFFF;" width="79.252" height="64.778"/>
					</g>
				</g>
				<g>
					<g>
						<path style="fill:#FFEFB9;" d="M360.422,385.451l-32.702,14.036c2.081,4.524,3.869,8.883,5.595,13.982        c0.623,1.842,1.841,3.806,1.887,5.848c0.076,3.393-2.725,3.014-5.324,2.905c-8.729-0.367-17.087-3.549-25.22-6.47        c-5.943-2.134-11.669-4.503-17.391-6.931c-1.884-7.11-5.992-12.577-12.461-13.773c-2.235-0.202-4.587,2.201-10.282,0.929        c-10.501-2.345-11.868-1.011-15.431-0.052c-4.749,1.278-8.852,9.724-1.386,14.282c-7.86,3.657-8.339,13.118-1.684,18.681        c-9.914,7.072-0.958,19.708,10.31,21.936c10.363,3.456,18.336,0.067,23.752-6.443c8.122,3.41,16.398,6.656,25.089,9.142        c18.231,5.217,41.877,8.661,56.412-6.695C378.463,428.998,368.821,404.638,360.422,385.451z"/>
						<g>
							<g>
								<g>
									<path d="M262.07,411.907c-0.022,0-0.043-0.001-0.064-0.002l-14.061-0.987c-0.493-0.035-0.864-0.462-0.829-0.955           c0.034-0.494,0.461-0.846,0.955-0.83l14.061,0.987c0.493,0.035,0.864,0.462,0.829,0.955           C262.928,411.547,262.535,411.907,262.07,411.907z"/>
								</g>
								<g>
									<path d="M260.224,430.857c-0.022,0-0.042-0.001-0.064-0.002l-14.061-0.987c-0.493-0.035-0.864-0.462-0.83-0.955           c0.034-0.494,0.464-0.869,0.955-0.829l14.061,0.987c0.493,0.035,0.865,0.462,0.83,0.955           C261.082,430.496,260.689,430.857,260.224,430.857z"/>
								</g>
							</g>
						</g>
					</g>
					<g>
						<path style="fill:#FFEFB9;" d="M211.113,431.883c7.014-5.863,6.51-15.835-1.775-19.689c7.869-4.805,3.545-13.707-1.461-15.054        c-3.756-1.011-5.196-2.417-16.264,0.054c-6.002,1.34-8.481-1.192-10.837-0.979c-7.182,1.327-11.605,7.65-13.433,15.73        c-6.707,1.915-13.563,3.594-20.546,3.462c-2.6-0.049-5.419,0.158-5.137-3.224c0.17-2.035,1.505-3.922,2.24-5.722        c2.033-4.984,4.083-9.226,6.435-13.615l-31.787-15.999c-9.551,18.64-20.658,42.369-4.898,61.193        c13.574,16.213,37.385,14.214,55.9,10.116c1.587-0.351,3.158-0.735,4.722-1.133c5.707,7.627,14.435,11.828,25.973,7.981        C212.123,452.655,221.563,439.337,211.113,431.883z"/>
						<g>
							<g>
								<g>
									<path d="M194.201,413.936c-0.465,0-0.858-0.36-0.891-0.832c-0.035-0.493,0.337-0.92,0.83-0.955l14.82-1.039           c0.48-0.041,0.92,0.337,0.955,0.829c0.035,0.493-0.337,0.92-0.83,0.955l-14.82,1.039           C194.243,413.935,194.221,413.936,194.201,413.936z"/>
								</g>
								<g>
									<path d="M196.146,433.91c-0.465,0-0.858-0.36-0.891-0.832c-0.035-0.493,0.337-0.92,0.829-0.955l14.821-1.04           c0.489-0.041,0.921,0.336,0.955,0.829c0.035,0.493-0.337,0.92-0.829,0.955l-14.82,1.04           C196.189,433.909,196.168,433.91,196.146,433.91z"/>
								</g>
							</g>
						</g>
					</g>
				</g>
			</g>
		</g>
		<g>
			<g>
				<g>
					<g>
						<g>
							<path style="fill:#FFEFB9;" d="M74.4,179.842c13.938-13.103,33.351-16.358,49.815-10.051         c6.162-43.662,32.719-96.408,124.589-95.062c63.585,0.931,114.357,47.505,123.225,107.145         c20.341-11.548,46.24-4.711,58.492,15.74c12.528,20.912,6.039,48.127-14.495,60.787         c-16.505,10.176-37.054,7.841-50.991-4.324c-17.992,50.416-63.97,77.147-128.257,75.115         c-61.376-1.94-111.783-30.126-119.072-66.752c-16.354,4.119-34.245-0.582-46.378-13.888         C53.48,228.977,54.856,198.215,74.4,179.842z"/>
						</g>
					</g>
				</g>
				<g>
					<g>
						<g>
							<g>
								<g>
									<g>
										<path d="M115.13,224.205c0.319-0.053,0.601-0.275,0.714-0.603c0.163-0.476-0.09-0.993-0.566-1.157l-32.262-11.079            c-0.475-0.163-0.993,0.09-1.157,0.566c-0.163,0.476,0.09,0.993,0.566,1.157l32.262,11.079            C114.834,224.219,114.986,224.229,115.13,224.205z"/>
									</g>
								</g>
							</g>
						</g>
					</g>
					<g>
						<g>
							<g>
								<g>
									<g>
										<path d="M117.82,263.24c0.021-0.004,0.043-0.008,0.064-0.013c0.489-0.117,0.791-0.609,0.674-1.098            c-3.914-16.334,5.182-32.289,7.833-35.668c0.309-0.396,0.241-0.968-0.155-1.278c-0.395-0.311-0.967-0.242-1.279,0.154            c-2.765,3.525-12.255,20.172-8.17,37.216C116.899,263.022,117.353,263.318,117.82,263.24z"/>
									</g>
								</g>
							</g>
						</g>
					</g>
					<g>
						<g>
							<g>
								<g>
									<g>
										<path d="M376.553,231.203c0.087-0.014,0.172-0.041,0.256-0.083l35.175-17.418c0.45-0.223,0.634-0.769,0.412-1.22            c-0.224-0.451-0.768-0.637-1.221-0.412l-35.175,17.418c-0.45,0.223-0.634,0.769-0.412,1.22            C375.77,231.076,376.168,231.266,376.553,231.203z"/>
									</g>
								</g>
							</g>
						</g>
					</g>
					<g>
						<g>
							<g>
								<g>
									<g>
										<path d="M365.127,254.611c0.382-0.063,0.696-0.368,0.753-0.773l0.945-6.776c0.07-0.498-0.278-0.958-0.776-1.028            c-0.495-0.072-0.958,0.277-1.027,0.776l-0.945,6.776c-0.07,0.498,0.278,0.958,0.776,1.028            C364.946,254.628,365.038,254.626,365.127,254.611z"/>
									</g>
								</g>
							</g>
						</g>
					</g>
				</g>
			</g>
			<g>
				<g>
					<path style="fill:#FF691B;" d="M366.684,1.26c-38.009,7.114-63.574,42.465-59.113,80.305       c-61.094-64.129-196.883-11.075-193.344,23.084c1.9,18.34,45.032,30.991,98.241,28.052       c39.52-2.183,72.994-12.304,87.183-24.917c3.309,10.039,8.127,20.793,14.38,31.529c19.463,33.414,45.764,54.734,60.928,50.176       c-1.317-15.187-5.013-30.672-10.706-45.073c9.362,2.088,19.29,2.362,29.316,0.486c39.665-7.424,65.802-45.598,58.378-85.263       C444.523,19.973,406.349-6.164,366.684,1.26z"/>
				</g>
				<g>
					<g>
						<g>
							<g>
								<g>
									<path d="M300.563,107.993c-0.169,0.268-0.444,0.428-0.737,0.459c-0.213,0.023-0.435-0.023-0.631-0.145           c-0.464-0.29-0.605-0.901-0.314-1.363l4.789-7.62c0.292-0.463,0.905-0.603,1.368-0.314c0.464,0.29,0.605,0.901,0.314,1.363           L300.563,107.993z"/>
								</g>
							</g>
						</g>
					</g>
				</g>
			</g>
			<g>
				<g>
					<g>
						<circle style="fill:#FF90C7;" cx="163.802" cy="267.757" r="30.132"/>
					</g>
					<g>
						<circle style="fill:#FF90C7;" cx="300.74" cy="267.757" r="30.132"/>
					</g>
				</g>
				<g>
					<g>
						<g>
							<path style="fill:#FFFFFF;" d="M294.837,257.157l4.659,0.212c28.214,0,51.812-23.118,51.085-51.615         c-0.782-30.644-23.85-51.988-53.111-51.615c0,0-28.026,35.979-38.842,49.94L294.837,257.157z"/>
						</g>
						<path d="M362.494,193.845l-12.253,1.327c-0.738-3.497-1.802-6.891-3.179-10.143l11.269-4.466        c0.46-0.182,0.684-0.702,0.502-1.161c-0.182-0.459-0.704-0.685-1.161-0.502l-11.347,4.497        c-1.376-2.971-3.016-5.814-4.918-8.498l9.685-7.62c0.388-0.306,0.456-0.869,0.15-1.257c-0.305-0.388-0.867-0.454-1.256-0.15        l-9.633,7.579c-0.605-0.796-1.228-1.58-1.88-2.344c-8.8-10.327-21.153-16.609-34.781-17.69        c-29.661-2.357-54.784,19.455-57.21,49.651c-0.04,0.493,0.327,0.925,0.82,0.965c0.045,0.001,0.085-0.015,0.129-0.019        c-0.023,0.564-0.051,1.127-0.055,1.695c-0.225,27.162,20.712,49.355,47.464,51.449l2.609-102.079        c2.008-0.072,4.042-0.042,6.102,0.123c13.152,1.043,25.071,7.104,33.561,17.066c9.175,10.767,13.576,24.82,12.391,39.571        c-0.04,0.492,0.327,0.924,0.82,0.964c0.025,0.001,0.048,0.002,0.073,0.002c0.461,0,0.853-0.355,0.891-0.824        c0.412-5.131,0.154-10.176-0.713-15.043l12.115-1.312c0.492-0.054,0.846-0.495,0.793-0.987        C363.426,194.148,362.98,193.787,362.494,193.845z"/>
					</g>
					<g>
						<g>
							<path style="fill:#FFFFFF;" d="M163.978,256.889c0,0,0.216,0,4.659,0.109c28.205,0.693,51.085-23.109,51.085-51.615         c0-27.837-22.051-51.913-53.111-51.615c0,0-28.026,35.979-38.842,49.94L163.978,256.889z"/>
						</g>
						<path d="M208.723,172.158c-8.872-11.146-21.619-17.906-35.893-19.04c-18.809-1.481-35.794,6.684-46.36,20.51l-9.856-7.62        c-0.389-0.303-0.953-0.228-1.255,0.161c-0.302,0.392-0.231,0.953,0.161,1.256l9.882,7.639        c-1.878,2.637-3.521,5.469-4.916,8.461l-11.448-4.426c-0.457-0.182-0.978,0.051-1.157,0.512        c-0.178,0.461,0.051,0.979,0.512,1.157l11.365,4.393c-1.371,3.213-2.451,6.603-3.207,10.143l-12.209-1.218        c-0.483-0.062-0.93,0.31-0.979,0.801c-0.05,0.492,0.309,0.93,0.802,0.979l12.026,1.2c-0.333,1.845-0.581,3.727-0.735,5.645        c-0.04,0.493,0.327,0.925,0.82,0.965c0.104,0.005,0.202-0.014,0.297-0.04c-0.025,0.591-0.053,1.18-0.058,1.776        c-0.225,27.162,20.706,49.385,47.458,51.479l2.616-102.114c2.008-0.069,4.041-0.038,6.101,0.128        c13.774,1.093,26.074,7.617,34.634,18.37c8.43,10.589,12.449,24.179,11.318,38.269c-0.04,0.492,0.327,0.924,0.82,0.963        c0.024,0.001,0.048,0.002,0.073,0.002c0.461,0,0.853-0.355,0.891-0.824C221.593,197.141,217.437,183.104,208.723,172.158z"/>
					</g>
				</g>
				<g>
					<g>
						<path style="fill:#FF691B;" d="M247.317,278.091c-8.929,6.49-20.748,5.018-29.022-1.556        c0.68-15.329,7.26-27.768,14.892-27.578C240.808,249.146,247.375,262.794,247.317,278.091z"/>
					</g>
					<path d="M267.477,282.922c-1.662-1.221-6.721-4.938-9.166-15.643c-2.012-8.812,0.457-16.062,2.109-19.6       c0.209-0.447,0.015-0.981-0.432-1.189c-0.446-0.208-0.98-0.016-1.189,0.432c-1.267,2.715-2.981,7.502-3.021,13.482       c-1.907,15.165-12.105,20.769-21.016,20.956c-10.548,0.208-22.408-6.947-24.783-21.073c-0.229-5.432-1.77-9.683-2.685-11.758       c-0.199-0.452-0.726-0.655-1.18-0.458c-0.452,0.199-0.657,0.728-0.457,1.18c1.371,3.109,4.239,11.39,1.262,21.098       c-2.969,9.685-7.325,12.744-9.185,14.051c-0.404,0.283-0.502,0.841-0.218,1.245c0.174,0.248,0.451,0.381,0.733,0.381       c0.178,0,0.357-0.052,0.514-0.163c2.01-1.412,6.719-4.718,9.868-14.99c0.506-1.65,0.838-3.254,1.057-4.809       c4.268,11.296,14.908,17.092,24.604,17.092c0.169,0,0.34-0.003,0.507-0.006c8.407-0.176,17.863-4.766,21.524-16.696       c0.076,0.406,0.15,0.812,0.245,1.225c2.593,11.355,8.056,15.369,9.851,16.688c0.16,0.118,0.345,0.174,0.529,0.174       c0.275,0,0.546-0.126,0.722-0.365C267.961,283.775,267.875,283.215,267.477,282.922z"/>
				</g>
			</g>
		</g>
	</g>
	<g>
		<g>
			<rect x="0" y="476.38" style="fill:#FF90C7;" width="512" height="35.62"/>
		</g>
		<g>
			<g>
				<g>
					<g>
						<path style="fill:#00BC84;" d="M130.141,424.535l-110.546-0.696c0.362-21.115,29.309-27.377,55.746-27.21        C101.778,396.795,129.137,405.757,130.141,424.535z"/>
					</g>
					<g>
						<path d="M87.219,391.366c-0.002-1.278-5.283-2.219-11.796-2.102c-6.513,0.117-11.791,1.248-11.789,2.527        c0.001,0.559,1.011,1.053,2.692,1.423l0.196,8.967c2.172,0.946,5.242,1.896,8.948,1.826c3.69-0.069,6.745-1.126,8.909-2.148        c-0.005-2.978-0.009-5.956-0.014-8.935C86.141,392.487,87.22,391.942,87.219,391.366z"/>
					</g>
				</g>
				<g>
					<g>
						<path style="fill:#00BC84;" d="M3.504,437.439c-5.897,8.307-4.176,20.559,3.844,27.366c8.02,6.806,19.301,5.59,25.198-2.717        c5.897-8.307,4.176-20.559-3.844-27.366C20.683,427.915,9.401,429.132,3.504,437.439z M27.216,457.563        c-3.732,5.258-10.872,6.028-15.948,1.72c-5.076-4.308-6.165-12.062-2.433-17.32c3.732-5.258,10.873-6.028,15.948-1.72        C29.859,444.551,30.948,452.306,27.216,457.563z"/>
					</g>
					<g>
						<path style="fill:#00BC84;" d="M122.222,435.31c-8.252,6.704-10.392,18.932-4.782,27.311c5.611,8.38,16.848,9.738,25.1,3.034        c8.251-6.704,10.392-18.932,4.782-27.311C141.711,429.965,130.473,428.606,122.222,435.31z M125.951,440.88        c5.222-4.243,12.335-3.383,15.886,1.92c3.551,5.303,2.196,13.043-3.027,17.286s-12.335,3.383-15.886-1.92        C119.373,452.862,120.729,445.123,125.951,440.88z"/>
					</g>
				</g>
				<g>
					<path style="fill:#004D4A;" d="M132.49,418.279l-115.03-0.724l-0.164,9.549l3.037,0.019L19.278,488.6       c-0.122,7.129,4.594,12.939,10.534,12.977l87.445,0.55c5.94,0.037,10.855-5.712,10.977-12.841l1.055-61.477l3.037,0.019       L132.49,418.279z"/>
				</g>
				<g>
					<path d="M129.288,428.559c-0.001,0-0.003,0-0.005,0l-108.956-0.686c-0.414-0.003-0.748-0.341-0.745-0.755       c0.002-0.412,0.338-0.745,0.75-0.745c0.001,0,0.003,0,0.005,0l108.956,0.686c0.414,0.003,0.748,0.341,0.745,0.755       C130.036,428.226,129.701,428.559,129.288,428.559z"/>
				</g>
			</g>
			<g>
				<g>
					<g>
						<g>
							<path style="fill:#FFD123;" d="M349.861,281.823l5.961,2.466c0.018,0.016,0.037,0.032,0.055,0.048L359.764,299         c1.06,18.667,2.913,37.67,5.879,58.951c3.202,22.978,7.276,46.081,11.758,65.55c22.797,0,45.594,0.599,68.392,0.599         c0.77-2.634,1.532-5.367,2.288-8.165c2.458,0.829,5.022,1.416,7.682,1.726c25.481,2.964,49.921-20.145,54.593-51.614         c4.668-31.465-12.201-59.377-37.678-62.342c-1.093-0.127-2.185-0.202-3.274-0.234c0.183-1.655,0.361-3.303,0.53-4.935         l4.792-15.122c0.104-0.167,0.16-0.336,0.16-0.506c0-3.845-27.156-6.963-60.655-6.964c-22.006,0-40.533,1.536-50.654,3.681         l-0.422-0.012L349.861,281.823z M451.144,404.047c3.176-12.88,6.175-26.723,8.885-40.214         c3.389-16.876,5.973-33.008,7.931-48.27c0.826,0.027,1.655,0.086,2.485,0.182c20.043,2.332,33.314,24.284,29.636,49.041         c-3.673,24.752-22.898,42.93-42.94,40.597C455.065,405.143,453.063,404.69,451.144,404.047z"/>
						</g>
						<g>
							<g>
								<path d="M407.764,303.707c0.809,0.012,1.617,0.022,2.425,0.028c19.404,0.161,38.975-1.31,58.17-4.372          c0.402-0.064,0.678-0.452,0.616-0.866c-0.062-0.413-0.438-0.701-0.84-0.633c-19.116,3.049-38.607,4.514-57.932,4.354          c-16.289-0.131-32.718-1.43-48.844-3.847c-0.402-0.056-0.776,0.227-0.835,0.642c-0.059,0.414,0.219,0.799,0.622,0.86          C376.536,302.18,392.208,303.468,407.764,303.707z"/>
							</g>
							<g>
								<path d="M405.378,290.57c2.921,0.045,5.924,0.067,9,0.067c24.333-0.005,60.536-2.069,60.538-7.734          c0-0.415-0.328-0.752-0.736-0.758c-0.003,0-0.007,0-0.011,0c-0.413,0.001-0.748,0.34-0.748,0.759          c-0.001,2.165-20.279,6.209-59.043,6.216c-29.311,0.007-52.752-2.155-56.999-5.257c-0.335-0.244-0.802-0.167-1.043,0.173          c-0.241,0.34-0.165,0.814,0.17,1.058C360.588,288.076,379.749,290.176,405.378,290.57z"/>
							</g>
						</g>
					</g>
					<g>
						<path style="fill:#FFFFFF;" d="M386.88,408.876c-0.372,0-0.697-0.273-0.75-0.653l-13.353-94.658        c-0.058-0.415,0.23-0.798,0.645-0.856c0.414-0.071,0.799,0.229,0.857,0.645l13.353,94.658c0.058,0.415-0.23,0.798-0.645,0.856        C386.951,408.874,386.916,408.876,386.88,408.876z"/>
					</g>
				</g>
				<g>
					<g>
						<g>
							<path d="M445.962,494.292c0,5.229,1.817,9.468,4.058,9.468c2.241,0,4.058-4.239,4.058-9.468c0-5.229-1.816-9.468-4.058-9.468         C447.779,484.824,445.962,489.063,445.962,494.292z"/>
							<path d="M369.615,494.291c0,5.229,1.817,9.468,4.058,9.468c2.241,0,4.058-4.239,4.058-9.468c0-5.229-1.817-9.468-4.058-9.468         C371.432,484.823,369.615,489.062,369.615,494.291z"/>
						</g>
						<g>
							<path style="fill:#FF691B;" d="M362.784,458.771c4.047-12.329,12.348-30.388,13.625-33.505l-1.659-0.026l0-8.277         l74.834,1.149l0,8.277l-2.544,0c4.564,8.484,9.444,19.255,13.328,32.15c4.267,14.149,6.128,26.833,6.904,36.911         c-4.409,0.001-8.819-0.002-13.228-0.001c-2.681,0.001-5.367-0.001-8.047,0c-3.152-0.001-6.309-0.001-9.467-0.001         l-24.415-15.076l-23.868,15.078c-3.514-0.001-7.029-0.002-10.548-0.003c-2.681,0.001-5.367-0.001-8.052,0.001         c-5.3-0.002-10.604,0.001-15.904,0C355.558,484.675,358.366,472.254,362.784,458.771z"/>
						</g>
						<g>
							<g>
								<path style="fill:#FFEFB9;" d="M388.247,495.451l48.284-0.003c0.646-4.439,0.925-9.159,0.783-14.041          c-0.736-25.365-12.619-45.6-26.536-45.193c-13.917,0.407-24.596,21.296-23.861,46.66          C387.046,487.245,387.503,491.463,388.247,495.451z"/>
							</g>
							<g>
								<g>
									
										<ellipse transform="matrix(0.5838 -0.8119 0.8119 0.5838 -209.887 529.0099)" style="fill:#FFD123;" cx="411.051" cy="469.228" rx="15.328" ry="15.327"/>
								</g>
								<g>
									<path d="M402.942,470.401c-0.334-2.13,0.181-4.263,1.451-6.005c1.27-1.742,3.142-2.886,5.272-3.22           c4.397-0.691,8.536,2.327,9.225,6.723c0.334,2.13-0.181,4.263-1.451,6.005c-1.27,1.742-3.142,2.886-5.272,3.22           c-0.464,0.073-0.924,0.104-1.379,0.097C406.936,477.162,403.559,474.333,402.942,470.401z M409.9,462.674           c-3.57,0.56-6.02,3.921-5.459,7.491c0.56,3.571,3.926,6.024,7.492,5.46c1.729-0.272,3.25-1.2,4.281-2.615           c1.031-1.415,1.45-3.147,1.178-4.876c-0.501-3.194-3.243-5.492-6.372-5.54C410.65,462.589,410.276,462.614,409.9,462.674z"/>
								</g>
								<g>
									<g>
										<path d="M410.253,458.484c0.094,0.6,0.657,1.011,1.257,0.916c0.6-0.094,1.011-0.657,0.917-1.257            c-0.094-0.6-0.657-1.011-1.258-0.916C410.569,457.32,410.159,457.883,410.253,458.484z"/>
									</g>
									<g>
										<path d="M420.997,468.753c0.094,0.6,0.657,1.011,1.257,0.917c0.6-0.094,1.011-0.657,0.917-1.258            c-0.094-0.6-0.657-1.011-1.258-0.916C421.313,467.589,420.902,468.152,420.997,468.753z"/>
									</g>
									<g>
										<path d="M398.62,468.105c0.094,0.6,0.657,1.011,1.258,0.917c0.6-0.094,1.011-0.657,0.917-1.257            c-0.094-0.6-0.657-1.011-1.258-0.917C398.936,466.941,398.526,467.504,398.62,468.105z"/>
									</g>
									<g>
										<path d="M409.259,480.543c0.094,0.6,0.657,1.011,1.258,0.916c0.6-0.094,1.011-0.657,0.916-1.257            c-0.094-0.6-0.657-1.011-1.257-0.916C409.575,479.38,409.164,479.943,409.259,480.543z"/>
									</g>
								</g>
							</g>
						</g>
					</g>
					<g>
						<path d="M374.739,425.998l74.833,1.149c0.419,0.007,0.763-0.328,0.77-0.746c0.007-0.419-0.328-0.763-0.746-0.77l-74.833-1.149        c-0.419-0.007-0.763,0.328-0.77,0.747C373.986,425.646,374.321,425.991,374.739,425.998z"/>
					</g>
				</g>
			</g>
		</g>
	</g>
</g>
<g>
</g>
<g>
</g>
<g>
</g>
<g>
</g>
<g>
</g>
<g>
</g>
<g>
</g>
<g>
</g>
<g>
</g>
<g>
</g>
<g>
</g>
<g>
</g>
<g>
</g>
<g>
</g>
<g>
</g>
</svg>
